<svg id="visual" viewBox="0 0 900 600" width="900" height="600" xmlns="http://www.w3.org/2000/svg" xmlns:xlink="http://www.w3.org/1999/xlink" version="1.1"><rect x="0" y="0" width="900" height="600" fill="#002233"></rect><path d="M0 103L21.5 107.7C43 112.3 86 121.7 128.8 123.5C171.7 125.3 214.3 119.7 257.2 135.2C300 150.7 343 187.3 385.8 188.2C428.7 189 471.3 154 514.2 151.3C557 148.7 600 178.3 642.8 201.8C685.7 225.3 728.3 242.7 771.2 248.5C814 254.3 857 248.7 878.5 245.8L900 243L900 0L878.5 0C857 0 814 0 771.2 0C728.3 0 685.7 0 642.8 0C600 0 557 0 514.2 0C471.3 0 428.7 0 385.8 0C343 0 300 0 257.2 0C214.3 0 171.7 0 128.8 0C86 0 43 0 21.5 0L0 0Z" fill="#0066FF" stroke-linecap="round" stroke-linejoin="miter"></path></svg>